<svg width="100" height="100" viewBox="0 0 100 100" fill="none" xmlns="http://www.w3.org/2000/svg">
<circle cx="50" cy="50" r="50" fill="#C4F969"/>
<path d="M25.8194 66.1818V34.3636H27.8578V66.1818H25.8194ZM31.226 44.8661C31.1266 43.8635 30.6999 43.0846 29.9458 42.5295C29.1918 41.9743 28.1685 41.6967 26.8759 41.6967C25.9976 41.6967 25.256 41.821 24.6511 42.0696C24.0462 42.3099 23.5822 42.6455 23.2591 43.0763C22.9442 43.5072 22.7868 43.9961 22.7868 44.543C22.7702 44.9987 22.8655 45.3964 23.0726 45.7362C23.2881 46.0759 23.5822 46.37 23.9551 46.6186C24.3279 46.8589 24.7588 47.0702 25.2477 47.2525C25.7366 47.4265 26.2586 47.5756 26.8137 47.6999L29.1007 48.2468C30.211 48.4954 31.2302 48.8268 32.1582 49.2411C33.0862 49.6554 33.89 50.165 34.5694 50.7699C35.2489 51.3748 35.775 52.0874 36.1479 52.9077C36.5291 53.728 36.7238 54.6684 36.7321 55.729C36.7238 57.2868 36.3261 58.6374 35.5389 59.7809C34.76 60.9161 33.6331 61.7985 32.1582 62.4283C30.6916 63.0497 28.9225 63.3604 26.851 63.3604C24.7961 63.3604 23.0063 63.0456 21.4817 62.4158C19.9654 61.7861 18.7805 60.8539 17.927 59.6193C17.0819 58.3764 16.6386 56.8394 16.5971 55.0082H21.8049C21.8629 55.8616 22.1073 56.5742 22.5382 57.146C22.9773 57.7094 23.5615 58.1361 24.2907 58.4261C25.0281 58.7079 25.8609 58.8487 26.7889 58.8487C27.7003 58.8487 28.4917 58.7161 29.1628 58.451C29.8423 58.1858 30.3684 57.8171 30.7413 57.3448C31.1142 56.8725 31.3006 56.3298 31.3006 55.7166C31.3006 55.1449 31.1307 54.6643 30.791 54.2749C30.4596 53.8854 29.9707 53.554 29.3244 53.2805C28.6864 53.0071 27.9034 52.7585 26.9753 52.5348L24.2037 51.8388C22.0576 51.3168 20.3631 50.5006 19.1202 49.3903C17.8773 48.2799 17.26 46.7843 17.2683 44.9034C17.26 43.3622 17.6702 42.0157 18.4988 40.864C19.3356 39.7122 20.4833 38.8132 21.9416 38.1669C23.3999 37.5206 25.0571 37.1974 26.9132 37.1974C28.8024 37.1974 30.4513 37.5206 31.8599 38.1669C33.2768 38.8132 34.3788 39.7122 35.166 40.864C35.9532 42.0157 36.3592 43.3498 36.3841 44.8661H31.226ZM49.4997 63.348C47.7431 63.348 46.1771 63.0249 44.8016 62.3786C43.4344 61.7322 42.3489 60.8415 41.5452 59.7063C40.7414 58.5711 40.323 57.2702 40.2899 55.8036H45.51C45.568 56.7897 45.9823 57.5893 46.7529 58.2024C47.5235 58.8156 48.4391 59.1222 49.4997 59.1222C50.3449 59.1222 51.0906 58.9357 51.737 58.5629C52.3915 58.1817 52.9011 57.6555 53.2657 56.9844C53.6386 56.3049 53.825 55.526 53.825 54.6477C53.825 53.7528 53.6344 52.9657 53.2533 52.2862C52.8804 51.6068 52.3625 51.0765 51.6997 50.6953C51.0368 50.3142 50.2786 50.1194 49.4252 50.1112C48.6794 50.1112 47.9544 50.2644 47.2501 50.571C46.5541 50.8776 46.0113 51.296 45.6219 51.8263L40.8367 50.9688L42.0423 37.5455H57.6034V41.9453H46.4795L45.8208 48.3214H45.9699C46.4173 47.6916 47.0927 47.1696 47.9958 46.7553C48.899 46.341 49.9099 46.1339 51.0285 46.1339C52.5614 46.1339 53.9286 46.4943 55.1301 47.2152C56.3315 47.9361 57.2803 48.9263 57.9763 50.1857C58.6723 51.4369 59.0162 52.8787 59.0079 54.511C59.0162 56.2262 58.6185 57.7508 57.8147 59.0849C57.0193 60.4106 55.9048 61.4547 54.4713 62.217C53.0461 62.971 51.3889 63.348 49.4997 63.348ZM72.7419 63.5593C70.6041 63.551 68.7646 63.0249 67.2235 61.9808C65.6905 60.9368 64.5098 59.4246 63.6812 57.4442C62.8609 55.4639 62.4549 53.0817 62.4632 50.2976C62.4632 47.5218 62.8733 45.1561 63.6936 43.2006C64.5222 41.2451 65.703 39.7578 67.2359 38.7386C68.7771 37.7112 70.6124 37.1974 72.7419 37.1974C74.8714 37.1974 76.7026 37.7112 78.2355 38.7386C79.7767 39.7661 80.9616 41.2576 81.7902 43.2131C82.6188 45.1603 83.029 47.5218 83.0207 50.2976C83.0207 53.09 82.6064 55.4763 81.7778 57.4567C80.9575 59.437 79.7809 60.9492 78.248 61.9933C76.7151 63.0373 74.8797 63.5593 72.7419 63.5593ZM72.7419 59.0973C74.2003 59.0973 75.3644 58.364 76.2345 56.8974C77.1045 55.4308 77.5354 53.2308 77.5271 50.2976C77.5271 48.367 77.3282 46.7595 76.9305 45.4751C76.541 44.1908 75.9859 43.2255 75.265 42.5792C74.5524 41.9329 73.7114 41.6097 72.7419 41.6097C71.2919 41.6097 70.1318 42.3348 69.2618 43.7848C68.3918 45.2348 67.9526 47.4058 67.9443 50.2976C67.9443 52.2531 68.1391 53.8854 68.5285 55.1946C68.9262 56.4955 69.4855 57.4732 70.2064 58.1278C70.9273 58.7741 71.7725 59.0973 72.7419 59.0973Z" fill="black"/>
</svg>
