<svg width="84" height="84" viewBox="0 0 84 84" fill="none" xmlns="http://www.w3.org/2000/svg">
<path d="M59.3613 17C58.9777 17 58.6668 17.3109 58.6668 17.6944V24.6389C58.6668 25.0224 58.9777 25.3333 59.3613 25.3333H66.3057C66.6892 25.3333 67.0002 25.0224 67.0002 24.6389V17.6944C67.0002 17.3109 66.6892 17 66.3057 17H59.3613ZM58.6668 67V64.9167C58.6668 63.7661 59.5996 62.8333 60.7502 62.8333C61.9008 62.8333 62.8335 63.7661 62.8335 64.9167V67H67.0002V64.9167C67.0002 63.7661 67.9329 62.8333 69.0835 62.8333C70.2341 62.8333 71.1668 63.7661 71.1668 64.9167V69.0833C71.1668 70.2339 70.2341 71.1667 69.0835 71.1667H52.4168C51.2662 71.1667 50.3335 70.2339 50.3335 69.0833V64.9167C50.3335 63.7661 51.2662 62.8333 52.4168 62.8333C53.5674 62.8333 54.5002 63.7661 54.5002 64.9167V67H58.6668ZM46.1668 37.8333H48.2502C49.4008 37.8333 50.3335 38.7661 50.3335 39.9167C50.3335 41.0673 49.4008 42 48.2502 42H39.9168C38.7662 42 37.8335 41.0673 37.8335 39.9167C37.8335 38.7661 38.7662 37.8333 39.9168 37.8333H42.0002V33.6667H35.7502C34.5996 33.6667 33.6668 32.7339 33.6668 31.5833C33.6668 30.4327 34.5996 29.5 35.7502 29.5H48.2502C49.4008 29.5 50.3335 30.4327 50.3335 31.5833C50.3335 32.7339 49.4008 33.6667 48.2502 33.6667H46.1668V37.8333ZM67.0002 42H64.9168C63.7662 42 62.8335 41.0673 62.8335 39.9167C62.8335 38.7661 63.7662 37.8333 64.9168 37.8333H67.0002V35.75C67.0002 34.5994 67.9329 33.6667 69.0835 33.6667C70.2341 33.6667 71.1668 34.5994 71.1668 35.75V44.0833C71.1668 45.2339 70.2341 46.1667 69.0835 46.1667C67.9329 46.1667 67.0002 45.2339 67.0002 44.0833V42ZM46.1668 50.3333H44.0835C42.9329 50.3333 42.0002 49.4006 42.0002 48.25C42.0002 47.0994 42.9329 46.1667 44.0835 46.1667H48.2502C49.4008 46.1667 50.3335 47.0994 50.3335 48.25V56.5833C50.3335 57.7339 49.4008 58.6667 48.2502 58.6667H35.7502C34.5996 58.6667 33.6668 57.7339 33.6668 56.5833C33.6668 55.4327 34.5996 54.5 35.7502 54.5H46.1668V50.3333ZM59.3613 12.8333H66.3057C68.9904 12.8333 71.1668 15.0097 71.1668 17.6944V24.6389C71.1668 27.3236 68.9904 29.5 66.3057 29.5H59.3613C56.6766 29.5 54.5002 27.3236 54.5002 24.6389V17.6944C54.5002 15.0097 56.6766 12.8333 59.3613 12.8333ZM17.6946 12.8333H24.6391C27.3238 12.8333 29.5002 15.0097 29.5002 17.6944V24.6389C29.5002 27.3236 27.3238 29.5 24.6391 29.5H17.6946C15.0099 29.5 12.8335 27.3236 12.8335 24.6389V17.6944C12.8335 15.0097 15.0099 12.8333 17.6946 12.8333ZM17.6946 17C17.3111 17 17.0002 17.3109 17.0002 17.6944V24.6389C17.0002 25.0224 17.3111 25.3333 17.6946 25.3333H24.6391C25.0226 25.3333 25.3335 25.0224 25.3335 24.6389V17.6944C25.3335 17.3109 25.0226 17 24.6391 17H17.6946ZM17.6946 54.5H24.6391C27.3238 54.5 29.5002 56.6764 29.5002 59.3611V66.3056C29.5002 68.9903 27.3238 71.1667 24.6391 71.1667H17.6946C15.0099 71.1667 12.8335 68.9903 12.8335 66.3056V59.3611C12.8335 56.6764 15.0099 54.5 17.6946 54.5ZM17.6946 58.6667C17.3111 58.6667 17.0002 58.9776 17.0002 59.3611V66.3056C17.0002 66.6891 17.3111 67 17.6946 67H24.6391C25.0226 67 25.3335 66.6891 25.3335 66.3056V59.3611C25.3335 58.9776 25.0226 58.6667 24.6391 58.6667H17.6946ZM46.1668 17H35.7502C34.5996 17 33.6668 16.0673 33.6668 14.9167C33.6668 13.7661 34.5996 12.8333 35.7502 12.8333H48.2502C49.4008 12.8333 50.3335 13.7661 50.3335 14.9167V23.25C50.3335 24.4006 49.4008 25.3333 48.2502 25.3333C47.0996 25.3333 46.1668 24.4006 46.1668 23.25V17ZM35.7502 25.3333C34.5996 25.3333 33.6668 24.4006 33.6668 23.25C33.6668 22.0994 34.5996 21.1667 35.7502 21.1667H39.9168C41.0674 21.1667 42.0002 22.0994 42.0002 23.25C42.0002 24.4006 41.0674 25.3333 39.9168 25.3333H35.7502ZM14.9168 50.3333C13.7662 50.3333 12.8335 49.4006 12.8335 48.25C12.8335 47.0994 13.7662 46.1667 14.9168 46.1667H23.2502C24.4008 46.1667 25.3335 47.0994 25.3335 48.25C25.3335 49.4006 24.4008 50.3333 23.2502 50.3333H14.9168ZM31.5835 50.3333C30.4329 50.3333 29.5002 49.4006 29.5002 48.25C29.5002 47.0994 30.4329 46.1667 31.5835 46.1667H35.7502C36.9008 46.1667 37.8335 47.0994 37.8335 48.25C37.8335 49.4006 36.9008 50.3333 35.7502 50.3333H31.5835ZM37.8335 67V69.0833C37.8335 70.2339 36.9008 71.1667 35.7502 71.1667C34.5996 71.1667 33.6668 70.2339 33.6668 69.0833V64.9167C33.6668 63.7661 34.5996 62.8333 35.7502 62.8333H44.0835C45.2341 62.8333 46.1668 63.7661 46.1668 64.9167C46.1668 66.0673 45.2341 67 44.0835 67H37.8335ZM29.5002 37.8333H31.5835C32.7341 37.8333 33.6668 38.7661 33.6668 39.9167C33.6668 41.0673 32.7341 42 31.5835 42H27.4168C26.2662 42 25.3335 41.0673 25.3335 39.9167V37.8333H23.2502C22.0996 37.8333 21.1668 36.9006 21.1668 35.75C21.1668 34.5994 22.0996 33.6667 23.2502 33.6667H27.4168C28.5674 33.6667 29.5002 34.5994 29.5002 35.75V37.8333ZM12.8335 35.75C12.8335 34.5994 13.7662 33.6667 14.9168 33.6667C16.0674 33.6667 17.0002 34.5994 17.0002 35.75V39.9167C17.0002 41.0673 16.0674 42 14.9168 42C13.7662 42 12.8335 41.0673 12.8335 39.9167V35.75ZM54.5002 35.75C54.5002 34.5994 55.4329 33.6667 56.5835 33.6667C57.7341 33.6667 58.6668 34.5994 58.6668 35.75V44.0833C58.6668 45.2339 57.7341 46.1667 56.5835 46.1667C55.4329 46.1667 54.5002 45.2339 54.5002 44.0833V35.75ZM62.8335 54.5V52.4167C62.8335 51.2661 63.7662 50.3333 64.9168 50.3333H69.0835C70.2341 50.3333 71.1668 51.2661 71.1668 52.4167C71.1668 53.5673 70.2341 54.5 69.0835 54.5H67.0002V56.5833C67.0002 57.7339 66.0674 58.6667 64.9168 58.6667H56.5835C55.4329 58.6667 54.5002 57.7339 54.5002 56.5833V52.4167C54.5002 51.2661 55.4329 50.3333 56.5835 50.3333C57.7341 50.3333 58.6668 51.2661 58.6668 52.4167V54.5H62.8335ZM4.50016 19.0833C4.50016 20.2339 3.56742 21.1667 2.41683 21.1667C1.26624 21.1667 0.333496 20.2339 0.333496 19.0833V10.75C0.333496 4.99704 4.9972 0.333336 10.7502 0.333336H19.0835C20.2341 0.333336 21.1668 1.26608 21.1668 2.41667C21.1668 3.56726 20.2341 4.5 19.0835 4.5H10.7502C7.29838 4.5 4.50016 7.29822 4.50016 10.75V19.0833ZM64.9168 4.5C63.7662 4.5 62.8335 3.56726 62.8335 2.41667C62.8335 1.26608 63.7662 0.333336 64.9168 0.333336H73.2502C79.0031 0.333336 83.6668 4.99704 83.6668 10.75V19.0833C83.6668 20.2339 82.7341 21.1667 81.5835 21.1667C80.4329 21.1667 79.5002 20.2339 79.5002 19.0833V10.75C79.5002 7.29822 76.7019 4.5 73.2502 4.5H64.9168ZM19.0835 79.5C20.2341 79.5 21.1668 80.4327 21.1668 81.5833C21.1668 82.7339 20.2341 83.6667 19.0835 83.6667H10.7502C4.9972 83.6667 0.333496 79.003 0.333496 73.25V64.9167C0.333496 63.7661 1.26624 62.8333 2.41683 62.8333C3.56742 62.8333 4.50016 63.7661 4.50016 64.9167V73.25C4.50016 76.7018 7.29838 79.5 10.7502 79.5H19.0835ZM79.5002 64.9167C79.5002 63.7661 80.4329 62.8333 81.5835 62.8333C82.7341 62.8333 83.6668 63.7661 83.6668 64.9167V73.25C83.6668 79.003 79.0031 83.6667 73.2502 83.6667H64.9168C63.7662 83.6667 62.8335 82.7339 62.8335 81.5833C62.8335 80.4327 63.7662 79.5 64.9168 79.5H73.2502C76.7019 79.5 79.5002 76.7018 79.5002 73.25V64.9167Z" fill="#C4F969"/>
</svg>
