<svg width="100" height="96" viewBox="0 0 100 96" fill="none" xmlns="http://www.w3.org/2000/svg">
<path fill-rule="evenodd" clip-rule="evenodd" d="M37.6401 95.3458C35.6346 96.3088 33.2265 95.5263 32.1699 93.5683L25.6586 81.5025L12.1712 79.0383C9.98275 78.6388 8.49442 76.59 8.79042 74.3854L10.6147 60.7967L1.15161 50.8754C-0.383869 49.2654 -0.383869 46.7333 1.15161 45.1238L10.6147 35.2025L8.79042 21.6138C8.49442 19.4089 9.98275 17.3604 12.1712 16.9606L25.6586 14.4965L32.1699 2.43068C33.2265 0.472879 35.6346 -0.309583 37.6401 0.653288L50 6.58743L62.36 0.653288C64.3654 -0.309583 66.7737 0.472879 67.83 2.43068L74.3412 14.4965L87.8287 16.9606C90.0171 17.3604 91.5054 19.4089 91.2096 21.6138L89.3854 35.2025L98.8483 45.1238C100.384 46.7333 100.384 49.2654 98.8483 50.8754L89.3854 60.7967L91.2096 74.3854C91.5054 76.59 90.0171 78.6388 87.8287 79.0383L74.3412 81.5025L67.83 93.5683C66.7737 95.5263 64.3654 96.3088 62.36 95.3458L50 89.4117L37.6401 95.3458ZM48.1967 81.0333C49.3367 80.4863 50.6633 80.4863 51.8033 81.0333L62.3837 86.1133L67.9579 75.7846C68.5583 74.6717 69.6317 73.8917 70.8758 73.6646L82.4217 71.555L80.86 59.9229C80.6917 58.6696 81.1017 57.4075 81.9746 56.4925L90.075 47.9996L81.9746 39.5066C81.1017 38.5916 80.6917 37.3297 80.86 36.0764L82.4217 24.4439L70.8758 22.3346C69.6317 22.1073 68.5583 21.3274 67.9579 20.2146L62.3837 9.88576L51.8033 14.9656C50.6633 15.513 49.3367 15.513 48.1967 14.9656L37.6161 9.88576L32.0421 20.2146C31.4416 21.3274 30.3681 22.1073 29.1242 22.3346L17.5785 24.4439L19.1402 36.0764C19.3084 37.3297 18.8984 38.5916 18.0256 39.5066L9.92479 47.9996L18.0256 56.4925C18.8984 57.4075 19.3084 58.6696 19.1402 59.9229L17.5785 71.555L29.1242 73.6646C30.3681 73.8917 31.4416 74.6717 32.0421 75.7846L37.6161 86.1133L48.1967 81.0333ZM42.5296 61.3625C40.9024 62.9896 38.2642 62.9896 36.637 61.3625C35.0099 59.7354 35.0099 57.0971 36.637 55.47L57.4704 34.6366C59.0975 33.0094 61.7358 33.0094 63.3629 34.6366C64.99 36.2638 64.99 38.902 63.3629 40.5292L42.5296 61.3625ZM39.5833 43.8329C36.1315 43.8329 33.3333 41.0346 33.3333 37.5829C33.3333 34.1311 36.1315 31.3329 39.5833 31.3329C43.035 31.3329 45.8333 34.1311 45.8333 37.5829C45.8333 41.0346 43.035 43.8329 39.5833 43.8329ZM60.4167 64.6663C56.965 64.6663 54.1667 61.8679 54.1667 58.4163C54.1667 54.9646 56.965 52.1663 60.4167 52.1663C63.8683 52.1663 66.6667 54.9646 66.6667 58.4163C66.6667 61.8679 63.8683 64.6663 60.4167 64.6663Z" fill="#C4F969"/>
</svg>
