<svg width="50" height="42" viewBox="0 0 50 42" fill="none" xmlns="http://www.w3.org/2000/svg">
<path d="M50 13.9688L44.4141 10.1797L47.1484 2.40626L41.6992 7.64064L35.1758 2.15236L37.832 9.02736C37.3828 8.96876 36.7969 8.77345 36.1328 8.32423C34.4336 7.13283 34.0625 5.84376 33.6719 4.45704C33.3594 3.36329 33.0273 2.23048 32.0312 1.25392C30.6641 -0.0937372 28.9453 -0.367175 27.4609 0.4922C26.4258 1.09767 25.7422 2.09376 25.5859 3.14845L22.3828 1.70314L20.8594 5.08204C19.9609 4.94533 19.0625 4.8672 18.125 4.8672C8.10547 4.88673 0 12.9922 0 22.9922C0 32.9922 8.10547 41.1172 18.125 41.1172C28.1445 41.1172 36.25 33.0117 36.25 22.9922C36.25 19.6914 35.3711 16.6055 33.8281 13.9492L38.0273 13.1094L36.8555 18.5195L41.3086 15.7461L47.1289 22.1133L44.5312 13.3633L50 13.9688ZM7.67578 20.1211C7.67578 18.2656 9.17969 16.7617 11.0352 16.7617C12.8906 16.7617 14.3945 18.2656 14.3945 20.1211C14.3945 21.9766 12.8906 23.4805 11.0352 23.4805C9.17969 23.461 7.67578 21.9766 7.67578 20.1211ZM25.918 31.7813L23.1445 29.5938L19.8047 32.2305L16.4648 29.5938L13.0859 32.2305L9.17969 29.1445L10.3125 27.6992L13.0859 29.8867L16.4258 27.25L19.7656 29.8867L23.1055 27.25L27.0312 30.336L25.918 31.7813ZM25.1953 23.461C23.3398 23.461 21.8359 21.957 21.8359 20.1016C21.8359 18.2461 23.3398 16.7422 25.1953 16.7422C27.0508 16.7422 28.5547 18.2461 28.5547 20.1016C28.5547 21.9766 27.0508 23.461 25.1953 23.461ZM28.9258 8.46095L30.3516 5.29689L26.8164 3.69533C26.7969 2.89454 27.3047 2.0547 28.1055 1.58595C29.082 1.01954 30.1953 1.21486 31.1328 2.15236C31.8945 2.89454 32.1289 3.77345 32.4219 4.78908C32.832 6.25392 33.3203 7.91408 35.3906 9.35939C35.9961 9.76954 36.5625 10.0235 37.0508 10.1602L32.9102 12.5625C31.8164 10.9805 30.4492 9.59376 28.9258 8.46095Z" fill="#C4F969"/>
</svg>
