<svg width="36" height="43" viewBox="0 0 36 43" fill="none" xmlns="http://www.w3.org/2000/svg">
<path d="M0.8125 0.0625V42.9375H35.1875V0.0625H0.8125ZM32.0625 39.875H3.9375V3.125H32.0625V39.875ZM16.4375 6.1875H7.0625V15.375H16.4375V6.1875ZM13.3125 12.3125H10.1875V9.25H13.3125V12.3125ZM28.9375 12.3125H18V9.25H28.9375V12.3125ZM16.4375 16.9062H7.0625V26.0938H16.4375V16.9062ZM13.3125 23.0312H10.1875V19.9688H13.3125V23.0312ZM28.9375 23.0312H18V19.9688H28.9375V23.0312ZM16.4375 27.625H7.0625V36.8125H16.4375V27.625ZM13.3125 33.75H10.1875V30.6875H13.3125V33.75ZM28.9375 33.75H18V30.6875H28.9375V33.75Z" fill="#C4F969"/>
</svg>
