<svg width="42" height="42" viewBox="0 0 42 42" fill="none" xmlns="http://www.w3.org/2000/svg">
<path d="M21 10.4444C23.3462 10.4444 25.2481 8.55409 25.2481 6.22222C25.2481 3.89035 23.3462 2 21 2C18.6537 2 16.7518 3.89035 16.7518 6.22222C16.7518 8.55409 18.6537 10.4444 21 10.4444ZM21 10.4444V16.7778M21 16.7778V40M21 16.7778H27.3722M21 16.7778H14.6278M21 40C30.8399 40 38.9433 32.6111 40 23.1111L34.8064 25.2222M21 40C11.1601 40 3.05662 32.6111 2 23.1111L7.1935 25.2222" stroke="#C4F969" stroke-width="4" stroke-linecap="round" stroke-linejoin="round"/>
</svg>
