<svg width="50" height="51" viewBox="0 0 50 51" fill="none" xmlns="http://www.w3.org/2000/svg">
<path d="M25.2442 12.673C28.7438 12.673 31.5807 9.83607 31.5807 6.33651C31.5807 2.83695 28.7438 0 25.2442 0C21.7447 0 18.9077 2.83695 18.9077 6.33651C18.9077 9.83607 21.7447 12.673 25.2442 12.673Z" fill="#C4F969"/>
<path d="M48.8176 35.6556C48.7361 35.5334 48.6343 35.4315 48.5324 35.3296L41.3401 28.6467L36.6947 18.6632C35.4315 16.1163 33.5978 14.5271 30.8676 14.5271H19.1522C16.4016 14.5271 14.5882 16.1163 13.325 18.6632L8.6796 28.6467L1.48735 35.3296C1.38548 35.4315 1.28361 35.5537 1.20211 35.6556C0.468622 36.2872 0 37.2245 0 38.2636C0 40.1584 1.54848 41.7069 3.44332 41.7069C4.56392 41.7069 5.54191 41.1771 6.17352 40.3418C6.23464 40.301 6.29576 40.2399 6.33651 40.1992L13.9566 33.1088C14.2419 32.8235 14.466 32.4975 14.629 32.1308L17.0536 26.9353L16.9313 36.1039L6.29577 41.8903C4.36018 42.9497 3.44332 45.2317 4.13606 47.3303C4.82879 49.4289 6.907 50.7328 9.08709 50.4272L24.9997 46.3116L40.9123 50.4272C43.0924 50.7328 45.1909 49.4289 45.8633 47.3303C46.556 45.2317 45.6392 42.9497 43.7036 41.8903L33.068 36.0835L32.9458 26.9149L35.3704 32.1104C35.5334 32.4772 35.7779 32.8032 36.0427 33.0884L43.6629 40.1788C43.724 40.2399 43.7647 40.2807 43.8258 40.3214C44.4575 41.1364 45.4354 41.6865 46.5561 41.6865C48.4509 41.6865 49.9994 40.138 49.9994 38.2432C50.0197 37.2041 49.5511 36.2872 48.8176 35.6556Z" fill="#C4F969"/>
</svg>
