<svg width="40" height="42" viewBox="0 0 40 42" fill="none" xmlns="http://www.w3.org/2000/svg">
<path d="M28.1313 7.65835C29.3758 9.19697 30.0557 11.1154 30.0578 13.0943C30.0599 15.0732 29.3842 16.9932 28.143 18.5345L30.2932 20.2603C31.9288 18.2291 32.8193 15.699 32.8165 13.0912C32.8137 10.4834 31.9178 7.95517 30.2779 5.92749L28.1313 7.65835Z" fill="#C4F969"/>
<path d="M35.8744 1.41377L33.7202 3.15084C35.9946 5.96315 37.2371 9.46958 37.241 13.0864C37.2449 16.7033 36.0099 20.2124 33.7416 23.0296L35.8994 24.7624C38.5575 21.4507 40.0042 17.3302 39.9997 13.0837C39.9952 8.83718 38.5397 4.71972 35.8744 1.41377Z" fill="#C4F969"/>
<path d="M28.5862 28.2462L22.3084 24.1657L24.6752 19.8265C25.227 18.8132 25.5164 17.678 25.5172 16.5242V9.65516C25.5172 7.09445 24.5 4.63862 22.6893 2.82793C20.8786 1.01724 18.4228 0 15.8621 0C13.3014 0 10.8455 1.01724 9.03483 2.82793C7.22414 4.63862 6.2069 7.09445 6.2069 9.65516V16.5242C6.20776 17.678 6.49724 18.8133 7.04897 19.8266L9.41578 24.1657L3.13794 28.2462C2.17312 28.8708 1.38034 29.7273 0.832142 30.7375C0.283947 31.7477 -0.00215637 32.8792 1.22369e-05 34.0286V41.3793H31.7241V34.0286C31.7263 32.8792 31.4402 31.7477 30.892 30.7375C30.3438 29.7273 29.551 28.8708 28.5862 28.2462ZM28.9655 38.6206H2.75863V34.0286C2.75734 33.339 2.92902 32.66 3.25795 32.0539C3.58688 31.4478 4.06256 30.9339 4.64147 30.5591L13.0605 25.0867L9.47078 18.5057C9.13974 17.8977 8.96605 17.2165 8.96552 16.5242V9.65516C8.96552 7.82608 9.69212 6.07192 10.9855 4.77857C12.2788 3.48522 14.033 2.75862 15.8621 2.75862C17.6911 2.75862 19.4453 3.48522 20.7387 4.77857C22.032 6.07192 22.7586 7.82608 22.7586 9.65516V16.5242C22.7581 17.2165 22.5844 17.8976 22.2533 18.5056L18.6638 25.0868L27.0829 30.5591C27.6618 30.9339 28.1374 31.4479 28.4663 32.054C28.7952 32.6601 28.9668 33.339 28.9655 34.0286V38.6206Z" fill="#C4F969"/>
</svg>
