<svg width="50" height="80" viewBox="0 0 50 80" fill="none" xmlns="http://www.w3.org/2000/svg">
<path opacity="0.8" fill-rule="evenodd" clip-rule="evenodd" d="M42.5335 5.51156C43.1791 6.05799 43.7823 6.70082 44.3217 7.46255C47.6503 12.1628 48.8988 21.8763 49.4616 26.2545L49.4641 26.2743C49.5584 26.2743 49.6562 32.3853 49.7358 39.1908L40.4978 49.8924L39.7844 58.2753L49.8124 46.4144C49.8704 52.3985 49.9073 57.3895 49.9073 57.3895L29.2495 79.5001L31.2887 46.7801C33.5052 45.4724 38.5234 42.2153 40.864 39.6476C43.2046 37.08 43.8489 33.3473 43.8784 31.802L27.7423 41.1633V49.1872L25.1589 52.3047V52.3076L25.1577 52.3062L25.0825 52.3968V52.2155L22.4991 49.098V41.0741L6.36295 31.7128C6.39251 33.2581 7.03677 36.9907 9.37739 39.5584C11.718 42.1261 16.7362 45.3832 18.9527 46.6908L20.9919 79.4109L11.4166 68.8905C11.5052 68.6825 11.6826 68.0525 11.6826 67.1966C11.6826 66.3407 11.5052 55.5469 11.4166 50.2571L4.58975 43.2138C4.91484 43.6001 5.61821 44.6581 5.83099 45.7993C6.04378 46.9405 6.15608 49.1278 6.18563 50.0788V63.5412L0.334068 57.3003C0.156748 46.988 0.56451 26.1851 0.777294 26.1851L0.779846 26.1653C1.17779 23.0692 1.91867 17.305 3.49556 12.5324C5.38928 5.32007 11.9533 0 19.7599 0H30.0846C35.0193 0 39.4576 2.12578 42.5335 5.51156Z" fill="#C4F969"/>
</svg>
